# xmcd
#
# Track frame offsets:
#	150
#	18620
#	39462
#	56127
#	75335
#	93477
#	109447
#	123650
#	140985
#	155452
#	176757
#	192805
#	211705
#	234425
#	252192
#	270825
#	290342
#	308700
#
# Disc length: 4365 seconds
#
# Revision: 0
# Processed by: cddbd v1.5PL3 Copyright (c) Steve Scherf et al.
# Submitted via: dBpowerAMP V4.0
#
DISCID=fb110b12
DTITLE=Cher - Best Ballads
DYEAR=1900
DGENRE=
TTITLE0=Just Like Jesse James
TTITLE1=It's a Man's Man's World
TTITLE2=I Found Someone
TTITLE3=Love Hurts
TTITLE4=I'm Blowin Away
TTITLE5=He Ain't Heavy, He Is My Brother
TTITLE6=Oh No Not My Baby
TTITLE7=We All Sleep Alone
TTITLE8=The Long  And Winding Road
TTITLE9=When Lovers Become Strangers
TTITLE10=My Love
TTITLE11=Save Up All You Tears
TTITLE12=Paradise Is Here
TTITLE13=I'll Never Stop Loving You
TTITLE14=Starting Over
TTITLE15=Not Enough Love In The World
TTITLE16=After All
TTITLE17=Many Rivers To Cross
EXTD=
EXTT0=
EXTT1=
EXTT2=
EXTT3=
EXTT4=
EXTT5=
EXTT6=
EXTT7=
EXTT8=
EXTT9=
EXTT10=
EXTT11=
EXTT12=
EXTT13=
EXTT14=
EXTT15=
EXTT16=
EXTT17=
PLAYORDER=
